<?xml version="1.0" encoding="UTF-8"?>
<svg version="1.1" xmlns="http://www.w3.org/2000/svg" width="500" height="500">
<path d="M0 0 C2.43638002 1.14837561 4.64146129 2.31090341 6.9375 3.6875 C7.61586914 4.08122803 8.29423828 4.47495605 8.99316406 4.88061523 C11.33513721 6.24313768 13.66721674 7.62180953 16 9 C17.79748104 10.05067086 19.59569157 11.10009446 21.39453125 12.1484375 C24.36332724 13.87885023 27.33153344 15.61021032 30.29736328 17.34570312 C38.2739524 22.01020082 46.2855132 26.61055926 54.3125 31.1875 C67.91664643 38.94637308 67.91664643 38.94637308 73.15234375 41.96484375 C73.87622252 42.38118702 74.6001013 42.79753029 75.34591579 43.22649002 C76.83451539 44.09244197 78.31632835 44.97032472 79.78669071 45.86689377 C84.10075229 48.46961106 88.3929147 50.63038874 93.0499115 52.55963135 C108.91995053 59.60858859 108.91995053 59.60858859 112.3908577 66.93638611 C114.44139046 74.87554357 114.24379405 82.99998068 113.99329114 91.13905239 C113.90546644 94.68577047 113.94238016 98.23165335 113.9606781 101.77911377 C113.97226213 107.72966399 113.88831583 113.67288131 113.74438477 119.62158203 C113.57955774 126.47666317 113.56066967 133.32031653 113.62079769 140.17685676 C113.67612029 146.80769614 113.63460327 153.43449641 113.54743767 160.064888 C113.51180768 162.87091624 113.50816961 165.67419632 113.53097725 168.48033905 C113.64979774 189.64507442 113.64979774 189.64507442 109.32562256 195.1199398 C105.35456387 198.5064835 101.00606469 200.48236684 96.11620331 202.20068264 C92.8405179 203.43795139 90.01308131 205.20292428 87.0234375 207.01953125 C84.80800126 208.28509716 82.59184628 209.54940564 80.375 210.8125 C79.16484808 211.50312438 77.95472503 212.19379934 76.74462891 212.88452148 C69.29992153 217.13153076 61.84111603 221.35324324 54.375 225.5625 C46.14078049 230.20553639 37.93755418 234.90017343 29.75 239.625 C28.66364258 240.25027588 27.57728516 240.87555176 26.45800781 241.51977539 C21.37273668 244.45160555 16.30439993 247.40548689 11.2734375 250.4296875 C10.39848633 250.95095215 9.52353516 251.4722168 8.62207031 252.00927734 C7.00317152 252.97574156 5.39010339 253.95206719 3.78417969 254.93994141 C2.71925293 255.57295166 2.71925293 255.57295166 1.6328125 256.21875 C1.02324707 256.58935547 0.41368164 256.95996094 -0.21435547 257.34179688 C-2.57586029 258.21226679 -3.65407483 257.8617 -6 257 C-7.49817 256.28861889 -8.97356839 255.52828531 -10.4296875 254.734375 C-11.29658203 254.26290039 -12.16347656 253.79142578 -13.05664062 253.30566406 C-13.98669922 252.79229492 -14.91675781 252.27892578 -15.875 251.75 C-16.84373047 251.21858398 -17.81246094 250.68716797 -18.81054688 250.13964844 C-28.53739559 244.76758964 -38.08124324 239.09805113 -47.62451172 233.40869141 C-52.39902059 230.57735367 -57.22685728 227.84113811 -62.05615234 225.10449219 C-64.3592434 223.79587828 -66.65825958 222.48024919 -68.95703125 221.1640625 C-77.07861985 216.51448448 -85.20485685 211.87628693 -93.375 207.3125 C-98.77828583 204.28894602 -104.12569629 201.18162185 -109.4375 198 C-110.08315918 197.61368408 -110.72881836 197.22736816 -111.39404297 196.8293457 C-115.87068822 194.12931178 -115.87068822 194.12931178 -117 193 C-117.15759596 191.2211856 -117.24468328 189.43611597 -117.30541992 187.65136719 C-117.34580887 186.46851135 -117.38619781 185.28565552 -117.42781067 184.06695557 C-117.46687852 182.72694842 -117.50523676 181.38692043 -117.54296875 180.046875 C-117.56354025 179.35651909 -117.58411175 178.66616318 -117.60530663 177.95488739 C-118.19137507 157.90513106 -118.25854642 137.84700175 -118.29516602 117.79003906 C-118.30417707 113.37974882 -118.32544968 108.96975837 -118.35668945 104.55957031 C-118.39497996 99.15398355 -118.41390864 93.74866635 -118.41844749 88.34294891 C-118.42330866 86.30315178 -118.43490918 84.26335878 -118.45348549 82.22364044 C-118.47769842 79.40169274 -118.47695113 76.58080762 -118.4699707 73.75878906 C-118.48278076 72.92577271 -118.49559082 72.09275635 -118.50878906 71.23449707 C-118.47603121 67.61607289 -118.36476619 65.47775784 -116.13371277 62.55560303 C-113.58858143 60.70005149 -111.01222346 59.14353578 -108.25 57.625 C-107.004382 56.93116892 -105.75966247 56.23572349 -104.515625 55.5390625 C-103.81244141 55.1462207 -103.10925781 54.75337891 -102.38476562 54.34863281 C-97.55885735 51.61948485 -92.78425592 48.80129067 -88 46 C-80.4945793 41.61362536 -72.97633817 37.25447006 -65.421875 32.953125 C-50.92348657 24.67778914 -36.52761695 16.22479146 -22.13658142 7.76463318 C-20.41480256 6.75515345 -18.68890965 5.75270088 -16.96289062 4.75048828 C-15.23147881 3.72756287 -13.51356842 2.67969643 -11.83398438 1.57373047 C-7.53202175 -1.21967407 -4.92058847 -1.37996392 0 0 Z " fill="#087AB4" transform="translate(249,123)"/>
<path d="M0 0 C0.103125 0.721875 0.20625 1.44375 0.3125 2.1875 C1.06718283 5.27483884 2.3227585 7.31641361 4 10 C4.67098469 11.66493296 5.3371306 13.33181944 6 15 C6.81435788 16.71745989 7.64788145 18.42595874 8.5 20.125 C8.9228125 20.97320312 9.345625 21.82140625 9.78125 22.6953125 C11.03989141 25.16968298 11.03989141 25.16968298 13 28 C13 28.99 13 29.98 13 31 C13.66 31 14.32 31 15 31 C17.40627742 34.60941613 17.65843673 37.4935682 18.2421875 41.72265625 C18.49226562 42.47417969 18.74234375 43.22570312 19 44 C19.66902344 44.30808594 20.33804688 44.61617187 21.02734375 44.93359375 C21.67832031 45.28550781 22.32929688 45.63742188 23 46 C23.57421875 48.75 23.57421875 48.75 23.6875 52 C23.73434876 56.15465962 23.73434876 56.15465962 25 60 C26.25353098 68.45466641 26.1830893 77.03662006 26.1875 85.5625 C26.19974609 86.81224609 26.21199219 88.06199219 26.22460938 89.34960938 C26.2346434 95.71452499 25.97158799 101.63526362 24.46142578 107.83178711 C23.94988829 110.23547201 23.79766536 112.54743746 23.6875 115 C23.26732439 119.80200699 21.6311621 123.27856453 19.33203125 127.47265625 C17.56353944 130.82812312 16.28402831 134.30995736 14.9921875 137.87109375 C13.94124831 140.1260617 12.78629608 141.3027843 11 143 C9.95377125 144.97620986 8.94560065 146.9737129 8 149 C7.34 149 6.68 149 6 149 C5.9175 149.9075 5.835 150.815 5.75 151.75 C4.88004521 155.51980409 3.75621266 156.4059175 1 159 C0.5875 159.886875 0.175 160.77375 -0.25 161.6875 C-7.00158901 174.46729348 -21.44010557 184.40073344 -34 191 C-34.97066406 191.51175781 -35.94132812 192.02351562 -36.94140625 192.55078125 C-56.42328671 202.18415281 -78.86974087 204.26126412 -100 199 C-101.175625 199.061875 -102.35125 199.12375 -103.5625 199.1875 C-108.40815003 198.92319182 -111.7021738 197.65065435 -115 194 C-116.23177625 189.62818848 -116.0525916 185.3131967 -115.98046875 180.796875 C-115.9868232 179.39709418 -115.99689439 177.99732627 -116.01029968 176.59759521 C-116.0333997 173.46906393 -116.03176237 170.34169902 -116.0145874 167.21313477 C-115.98909483 161.62237564 -116.05035063 156.03368448 -116.11572266 150.44335938 C-116.21997223 140.97273362 -116.27170909 131.50290092 -116.2891407 122.03173065 C-116.29934655 116.54085971 -116.31779547 111.05032077 -116.35668945 105.55957031 C-116.39497996 100.15398355 -116.41390864 94.74866635 -116.41844749 89.34294891 C-116.42330866 87.30315178 -116.43490918 85.26335878 -116.45348549 83.22364044 C-116.47769842 80.40169274 -116.47695113 77.58080762 -116.4699707 74.75878906 C-116.48278076 73.92577271 -116.49559082 73.09275635 -116.50878906 72.23449707 C-116.47603121 68.61607289 -116.36476619 66.47775784 -114.13371277 63.55560303 C-111.58858143 61.70005149 -109.01222346 60.14353578 -106.25 58.625 C-105.004382 57.93116892 -103.75966247 57.23572349 -102.515625 56.5390625 C-101.81244141 56.1462207 -101.10925781 55.75337891 -100.38476562 55.34863281 C-95.55885735 52.61948485 -90.78425592 49.80129067 -86 47 C-78.4945793 42.61362536 -70.97633817 38.25447006 -63.421875 33.953125 C-48.92319083 25.67762033 -34.52994737 17.22005173 -20.1355896 8.76493835 C-18.41761936 7.75683402 -16.69821409 6.75117643 -14.97875977 5.74560547 C-13.21195121 4.71022466 -11.44816485 3.6696108 -9.69116211 2.61767578 C-6.26463593 0.58783877 -4.04457876 -0.49025197 0 0 Z " fill="#C45438" transform="translate(247,122)"/>
<path d="M0 0 C0.66 0 1.32 0 2 0 C7 5.47619048 7 5.47619048 7 8 C7.99 8.33 8.98 8.66 10 9 C11.68933922 10.6436814 13.35259924 12.3142876 15 14 C31.31033729 28.45688987 51.33909395 37.43584503 73.1875 37.25 C74.28505615 37.24613281 75.3826123 37.24226563 76.51342773 37.23828125 C84.49253176 37.15345357 92.16091193 36.5706223 100 35 C100 35.66 100 36.32 100 37 C97 39 97 39 94 39 C93.89292725 39.89730835 93.89292725 39.89730835 93.78369141 40.81274414 C92.70011422 43.83697094 91.23402864 44.42795493 88.4609375 45.99609375 C87.50010254 46.54773193 86.53926758 47.09937012 85.54931641 47.66772461 C84.50179199 48.25175049 83.45426758 48.83577637 82.375 49.4375 C81.2926709 50.05439697 80.2103418 50.67129395 79.09521484 51.30688477 C75.73710218 53.2171986 72.36945093 55.10977178 69 57 C67.06719463 58.09284196 65.13487653 59.1865463 63.203125 60.28125 C60.4033985 61.86645759 57.60279599 63.45000246 54.79931641 65.02856445 C47.42326068 69.18222388 40.08125868 73.39283513 32.75 77.625 C31.66396484 78.25011475 30.57792969 78.87522949 29.45898438 79.51928711 C24.37334655 82.45121109 19.30471202 85.40529929 14.2734375 88.4296875 C13.39848633 88.95095215 12.52353516 89.4722168 11.62207031 90.00927734 C10.00317152 90.97574156 8.39010339 91.95206719 6.78417969 92.93994141 C6.07422852 93.36194824 5.36427734 93.78395508 4.6328125 94.21875 C4.02324707 94.58935547 3.41368164 94.95996094 2.78564453 95.34179688 C0.42413971 96.21226679 -0.65407483 95.8617 -3 95 C-4.49817 94.28861889 -5.97356839 93.52828531 -7.4296875 92.734375 C-8.29658203 92.26290039 -9.16347656 91.79142578 -10.05664062 91.30566406 C-10.98669922 90.79229492 -11.91675781 90.27892578 -12.875 89.75 C-14.3280957 88.95287598 -14.3280957 88.95287598 -15.81054688 88.13964844 C-25.53739559 82.76758964 -35.08124324 77.09805113 -44.62451172 71.40869141 C-49.39902059 68.57735367 -54.22685728 65.84113811 -59.05615234 63.10449219 C-61.3592434 61.79587828 -63.65825958 60.48024919 -65.95703125 59.1640625 C-75.46901216 53.71812643 -84.99350094 48.29661152 -94.5546875 42.9375 C-98.04584234 40.97422018 -101.52461265 38.99101475 -105 37 C-105 36.34 -105 35.68 -105 35 C-103.4372038 35.14262412 -101.87477304 35.28925511 -100.3125 35.4375 C-99.44238281 35.51871094 -98.57226562 35.59992188 -97.67578125 35.68359375 C-95 36 -95 36 -92.70654297 36.50268555 C-76.77909972 39.42927782 -59.0139144 38.00769741 -44 32 C-43.27780273 31.71592285 -42.55560547 31.4318457 -41.81152344 31.13916016 C-31.29923733 26.88396756 -22.63130821 21.29962066 -14 14 C-12.95585937 13.1646875 -12.95585937 13.1646875 -11.890625 12.3125 C-7.94055312 9.09651228 -4.70468465 5.47895104 -1.48046875 1.5390625 C-0.99191406 1.03117187 -0.50335938 0.52328125 0 0 Z " fill="#074175" transform="translate(246,285)"/>
<path d="M0 0 C-0.99 0.66 -1.98 1.32 -3 2 C-4.41625215 4.19170113 -4.41625215 4.19170113 -5.72265625 6.80859375 C-9.15612903 13.30883724 -12.78252028 19.68463469 -16.4375 26.0625 C-17.13389522 27.27895717 -17.83026518 28.4954288 -18.52661133 29.71191406 C-20.68213013 33.47591727 -22.84083762 37.23808606 -25 41 C-25.35199463 41.61357361 -25.70398926 42.22714722 -26.06665039 42.85931396 C-28.43718792 46.9913192 -30.81136241 51.1212124 -33.1875 55.25 C-33.79843506 56.31355713 -34.40937012 57.37711426 -35.03881836 58.47290039 C-37.50274554 62.74679384 -39.97375903 67.00366799 -42.61328125 71.171875 C-45.25639291 75.35118157 -47.62114983 79.66656432 -50 84 C-56.17031628 95.06065256 -62.34958669 106.0898682 -69.07421875 116.82421875 C-71.32478113 120.53559242 -73.41537893 124.31877895 -75.5 128.125 C-80.06868743 136.45926765 -84.90009409 144.62445951 -89.77770996 152.78109741 C-95.55690185 162.45252744 -101.10828213 172.22801951 -106.48339844 182.13110352 C-107.28825684 183.59567993 -107.28825684 183.59567993 -108.109375 185.08984375 C-108.57311523 185.94441162 -109.03685547 186.79897949 -109.51464844 187.67944336 C-111.09473108 190.14799784 -112.9053621 191.96269365 -115 194 C-116.01335262 168.93381226 -116.24948459 143.87482334 -116.29516602 118.79003906 C-116.30417707 114.37974882 -116.32544968 109.96975837 -116.35668945 105.55957031 C-116.39497996 100.15398355 -116.41390864 94.74866635 -116.41844749 89.34294891 C-116.42330866 87.30315178 -116.43490918 85.26335878 -116.45348549 83.22364044 C-116.47769842 80.40169274 -116.47695113 77.58080762 -116.4699707 74.75878906 C-116.48278076 73.92577271 -116.49559082 73.09275635 -116.50878906 72.23449707 C-116.47603121 68.61607289 -116.36476619 66.47775784 -114.13371277 63.55560303 C-111.58858143 61.70005149 -109.01222346 60.14353578 -106.25 58.625 C-105.004382 57.93116892 -103.75966247 57.23572349 -102.515625 56.5390625 C-101.81244141 56.1462207 -101.10925781 55.75337891 -100.38476562 55.34863281 C-95.55885735 52.61948485 -90.78425592 49.80129067 -86 47 C-78.4945793 42.61362536 -70.97633817 38.25447006 -63.421875 33.953125 C-48.92319083 25.67762033 -34.52994737 17.22005173 -20.1355896 8.76493835 C-18.41761936 7.75683402 -16.69821409 6.75117643 -14.97875977 5.74560547 C-13.21195121 4.71022466 -11.44816485 3.6696108 -9.69116211 2.61767578 C-6.26463593 0.58783877 -4.04457876 -0.49025197 0 0 Z " fill="#E4A528" transform="translate(247,122)"/>
<path d="M0 0 C0.99 0.33 1.98 0.66 3 1 C3.39787565 17.6461173 3.69725059 34.29068372 3.88080692 50.94041252 C3.96832 58.67218207 4.08750763 66.40099115 4.2824707 74.13085938 C4.45241137 80.87188118 4.56169681 87.61075954 4.59950441 94.35386384 C4.62159895 97.92275233 4.67310627 101.48551237 4.79741096 105.05242538 C5.52528097 126.7491392 5.52528097 126.7491392 1.29862595 132.19022369 C-3.22842456 136.08655216 -8.32984653 138.28154443 -14 140 C-14.99 140.33 -15.98 140.66 -17 141 C-17 140.01 -17 139.02 -17 138 C-15.02 137.34 -13.04 136.68 -11 136 C-11 135.34 -11 134.68 -11 134 C-11.639375 134.309375 -12.27875 134.61875 -12.9375 134.9375 C-20.6628547 137.6177251 -29.28529265 137.21091929 -37.375 137.25 C-38.43460937 137.270625 -39.49421875 137.29125 -40.5859375 137.3125 C-60.38028263 137.4095311 -80.08109307 127.54889728 -95 115 C-96.03125 114.195625 -97.0625 113.39125 -98.125 112.5625 C-107.16494845 104.50515464 -107.16494845 104.50515464 -109 99 C-109.66 98.67 -110.32 98.34 -111 98 C-109.47025221 95.45042035 -107.94004176 92.90314439 -106.375 90.375 C-104.88056866 87.97779417 -104.88056866 87.97779417 -104 85 C-103.34 85 -102.68 85 -102 85 C-101.896875 84.443125 -101.79375 83.88625 -101.6875 83.3125 C-100.85821592 80.5230899 -99.65700944 78.3860936 -98 76 C-97.34 76 -96.68 76 -96 76 C-95.88527344 75.46375 -95.77054687 74.9275 -95.65234375 74.375 C-94.85346126 71.46649371 -93.73334143 68.77944553 -92.5625 66 C-91.91474609 64.453125 -91.91474609 64.453125 -91.25390625 62.875 C-90 60 -90 60 -88.87109375 57.9140625 C-87.84592038 55.66143941 -87.66058094 53.83991742 -87.5 51.375 C-87.21181771 47.86020529 -86.74752193 44.50879595 -86 41.0625 C-84.86652969 35.74195652 -84.39153417 30.41965723 -84 25 C-81.60269992 27.39730008 -81.23681198 29.0420265 -80.30078125 32.28515625 C-79.98238281 33.36506836 -79.66398437 34.44498047 -79.3359375 35.55761719 C-78.99820313 36.71422852 -78.66046875 37.87083984 -78.3125 39.0625 C-72.43610963 58.59882691 -65.49548885 77.31530454 -52 93 C-51.23816406 93.89460938 -50.47632813 94.78921875 -49.69140625 95.7109375 C-44.27706687 101.87703383 -38.7093037 107.26787937 -32 112 C-31.47341797 112.37398926 -30.94683594 112.74797852 -30.40429688 113.13330078 C-19.7630994 120.533881 -11.15540595 122.53805107 2 126 C2 85.08 2 44.16 2 2 C1.34 2 0.68 2 0 2 C0 1.34 0 0.68 0 0 Z " fill="#097AB3" transform="translate(357,186)"/>
<path d="M0 0 C2.39730008 2.39730008 2.76318802 4.0420265 3.69921875 7.28515625 C4.01761719 8.36506836 4.33601563 9.44498047 4.6640625 10.55761719 C5.00179688 11.71422852 5.33953125 12.87083984 5.6875 14.0625 C11.56389037 33.59882691 18.50451115 52.31530454 32 68 C32.76183594 68.89460938 33.52367187 69.78921875 34.30859375 70.7109375 C46.93418839 85.08953982 62.01508717 94.76289235 80 101 C81.67025173 101.65763317 83.33820478 102.32128144 85 103 C81.08558526 104.49261774 77.6650566 103.5501287 73.75 102.5625 C73.05124756 102.38710693 72.35249512 102.21171387 71.63256836 102.03100586 C64.15831264 99.99925861 57.48758483 96.63710041 50.71679688 92.93554688 C49.21398116 92.11660634 47.69415466 91.32904079 46.171875 90.546875 C41.68164107 88.19767976 38.44275099 85.78702609 35 82 C34.03513672 81.09701172 34.03513672 81.09701172 33.05078125 80.17578125 C17.79342985 65.77049834 8.99388576 47.5269276 2.60644531 27.81396484 C2.09449308 26.28264234 1.51895103 24.77279843 0.9296875 23.26953125 C-1.9179621 15.61166272 -0.82040231 7.9667983 0 0 Z " fill="#01314B" transform="translate(273,211)"/>
<path d="M0 0 C4.4213775 0.59170851 7.54690253 2.25132736 11.375 4.5 C11.97135254 4.84804687 12.56770508 5.19609375 13.18212891 5.5546875 C15.12696355 6.69401415 17.06423633 7.84533395 19 9 C19.69738281 9.41507813 20.39476562 9.83015625 21.11328125 10.2578125 C25.41807967 12.82337792 29.71239285 15.40581753 34 18 C23.95505618 20.65168539 23.95505618 20.65168539 19 19 C18.67 19.66 18.34 20.32 18 21 C17.67 20.34 17.34 19.68 17 19 C16.46862557 25.69531781 17.21664898 29.33038969 20.90625 34.95703125 C22 37 22 37 22 41 C23.485 41.495 23.485 41.495 25 42 C25.06058594 42.62648437 25.12117188 43.25296875 25.18359375 43.8984375 C25.30927734 45.12433594 25.30927734 45.12433594 25.4375 46.375 C25.51871094 47.18710938 25.59992188 47.99921875 25.68359375 48.8359375 C25.89090114 51.04272805 25.89090114 51.04272805 27 53 C28.11361807 60.53055019 28.1171824 67.96164603 28.0625 75.5625 C28.05798828 76.76197266 28.05347656 77.96144531 28.04882812 79.19726562 C28.03713769 82.13156359 28.02075138 85.06575449 28 88 C27.67 88 27.34 88 27 88 C26.94465088 87.13197754 26.88930176 86.26395508 26.83227539 85.36962891 C26.62510399 82.15275935 26.41408491 78.93617213 26.20043945 75.71972656 C26.10872227 74.32692398 26.01854468 72.93401914 25.92993164 71.54101562 C25.80238058 69.5401029 25.6688538 67.53957392 25.53515625 65.5390625 C25.456604 64.33459473 25.37805176 63.13012695 25.29711914 61.88916016 C25.17835616 59.06223927 25.17835616 59.06223927 24 57 C23.92934383 54.95944995 23.91578024 52.91665743 23.9375 50.875 C23.94652344 49.77929688 23.95554687 48.68359375 23.96484375 47.5546875 C23.97644531 46.71164063 23.98804688 45.86859375 24 45 C23.36320312 44.88785156 22.72640625 44.77570313 22.0703125 44.66015625 C21.38710938 44.44230469 20.70390625 44.22445312 20 44 C18.875 41.4375 18.875 41.4375 18 38 C17.814375 37.28199219 17.62875 36.56398437 17.4375 35.82421875 C16.94199171 33.88691897 16.46920239 31.94383848 16 30 C15.34 30 14.68 30 14 30 C13.04635413 28.09270826 12.09292936 26.18530565 11.140625 24.27734375 C10.42609995 22.85074065 9.70792218 21.42595475 8.984375 20.00390625 C6.79890485 15.69367346 4.80733654 11.33640981 2.9296875 6.8828125 C2.03875655 4.82478369 2.03875655 4.82478369 0 3 C0 2.01 0 1.02 0 0 Z " fill="#2784B3" transform="translate(246,123)"/>
<path d="M0 0 C-0.99 0.66 -1.98 1.32 -3 2 C-4.36374396 4.09189505 -4.36374396 4.09189505 -5.625 6.625 C-8.29729842 11.69291948 -11.05676963 16.69986444 -13.875 21.6875 C-14.28057129 22.40695801 -14.68614258 23.12641602 -15.10400391 23.86767578 C-16.06863277 25.5788471 -17.03421221 27.28948251 -18 29 C-18.33 29 -18.66 29 -19 29 C-19 27.35 -19 25.7 -19 24 C-19.99 23.67 -20.98 23.34 -22 23 C-21.67 21.35 -21.34 19.7 -21 18 C-21.66 18 -22.32 18 -23 18 C-23.33 18.66 -23.66 19.32 -24 20 C-24 18.68 -24 17.36 -24 16 C-28.68572928 16.94944955 -28.68572928 16.94944955 -32.5 19.5625 C-34.92594585 21.88736477 -37.76651419 21.69495417 -41 22 C-37.29587623 18.88790917 -33.41631716 16.34045231 -29.23828125 13.92578125 C-28.29048042 13.3718293 -28.29048042 13.3718293 -27.3235321 12.8066864 C-25.32202265 11.63819156 -23.31729212 10.47535176 -21.3125 9.3125 C-19.95487144 8.5205365 -18.59744749 7.72822213 -17.24023438 6.93554688 C-5.1164872 -0.1346444 -5.1164872 -0.1346444 0 0 Z " fill="#E3A12C" transform="translate(247,122)"/>
<path d="M0 0 C0.66 0.33 1.32 0.66 2 1 C1.3125 2.9375 1.3125 2.9375 0 5 C-1.65 5.33 -3.3 5.66 -5 6 C-5 48.24 -5 90.48 -5 134 C-5.33 134 -5.66 134 -6 134 C-7.01335262 108.93381226 -7.24948459 83.87482334 -7.29516602 58.79003906 C-7.30417707 54.37974882 -7.32544968 49.96975837 -7.35668945 45.55957031 C-7.39497996 40.15398355 -7.41390864 34.74866635 -7.41844749 29.34294891 C-7.42330866 27.30315178 -7.43490918 25.26335878 -7.45348549 23.22364044 C-7.47769842 20.40169274 -7.47695113 17.58080762 -7.4699707 14.75878906 C-7.48278076 13.92577271 -7.49559082 13.09275635 -7.50878906 12.23449707 C-7.47623967 8.63909942 -7.36919675 6.48556611 -5.15812683 3.57757568 C-3.46887717 2.34274594 -1.74102799 1.16068533 0 0 Z " fill="#E6D09F" transform="translate(138,182)"/>
<path d="M0 0 C1 3 1 3 0.00390625 5.26171875 C-0.70958984 6.46248047 -0.70958984 6.46248047 -1.4375 7.6875 C-1.91058594 8.49574219 -2.38367188 9.30398437 -2.87109375 10.13671875 C-3.24363281 10.75160156 -3.61617187 11.36648437 -4 12 C-4.66 12 -5.32 12 -6 12 C-6.20625 12.763125 -6.4125 13.52625 -6.625 14.3125 C-9.01991113 20.73521622 -12.40103899 26.80671547 -16.3125 32.4375 C-18.06846191 34.76353032 -18.06846191 34.76353032 -18.390625 36.85546875 C-19.19425253 39.68361949 -20.67881033 41.52764289 -22.4375 43.875 C-25.08495089 47.53613881 -26.72454727 50.64220316 -28 55 C-28.99709329 56.00289829 -29.99736006 57.00264693 -31 58 C-32.05997682 59.72818487 -32.05997682 59.72818487 -32.9375 61.6171875 C-33.27523437 62.30683594 -33.61296875 62.99648438 -33.9609375 63.70703125 C-34.30382812 64.42246094 -34.64671875 65.13789063 -35 65.875 C-37.17718533 70.36851408 -39.37463112 74.74535808 -42 79 C-43.73594738 82.51051598 -43.73594738 82.51051598 -43.625 86.3125 C-43.41875 86.869375 -43.2125 87.42625 -43 88 C-44.98 88.495 -44.98 88.495 -47 89 C-46.67 90.32 -46.34 91.64 -46 93 C-49.465 93.495 -49.465 93.495 -53 94 C-52.31455853 90.42621362 -50.84297907 87.64477548 -49.078125 84.4765625 C-48.47137939 83.38424316 -47.86463379 82.29192383 -47.23950195 81.16650391 C-46.57663856 79.98583192 -45.91346364 78.80533479 -45.25 77.625 C-44.56788182 76.40417359 -43.8858351 75.18330725 -43.20385742 73.96240234 C-38.49105818 65.54866408 -33.6473138 57.21770249 -28.70825195 48.93457031 C-25.04432122 42.7884769 -21.46793788 36.59864282 -17.9375 30.375 C-12.13033019 20.14581238 -6.09837761 10.05774765 0 0 Z " fill="#C05C27" transform="translate(187,222)"/>
<path d="M0 0 C2.5672224 3.85083359 3 7.31697128 3 12 C3.16105953 13.52143736 3.32869656 15.04218196 3.5 16.5625 C3.5928125 17.38878906 3.685625 18.21507812 3.78125 19.06640625 C3.8534375 19.70449219 3.925625 20.34257812 4 21 C3.34 21 2.68 21 2 21 C1.67 19.68 1.34 18.36 1 17 C-1.72798722 20.24344992 -3.06745201 23.46585253 -4.5 27.4375 C-5.99444975 31.57118633 -7.46109213 35.38745821 -10 39 C-10.66 39 -11.32 39 -12 39 C-12.20625 39.804375 -12.4125 40.60875 -12.625 41.4375 C-15.05862772 47.74280817 -18.91709307 53.50358233 -24 58 C-24.66 57.67 -25.32 57.34 -26 57 C-24.47025221 54.45042035 -22.94004176 51.90314439 -21.375 49.375 C-19.88056866 46.97779417 -19.88056866 46.97779417 -19 44 C-18.34 44 -17.68 44 -17 44 C-16.896875 43.443125 -16.79375 42.88625 -16.6875 42.3125 C-15.85821592 39.5230899 -14.65700944 37.3860936 -13 35 C-12.34 35 -11.68 35 -11 35 C-10.88527344 34.46375 -10.77054687 33.9275 -10.65234375 33.375 C-9.85346126 30.46649371 -8.73334143 27.77944553 -7.5625 25 C-6.91474609 23.453125 -6.91474609 23.453125 -6.25390625 21.875 C-5 19 -5 19 -3.87109375 16.93359375 C-2.8142501 14.58768521 -2.65789859 12.6244046 -2.5 10.0625 C-2.19908991 6.35857029 -1.68368509 3.36737018 0 0 Z " fill="#1577AD" transform="translate(272,227)"/>
<path d="M0 0 C0.99 0.33 1.98 0.66 3 1 C3.39787565 17.6461173 3.69725059 34.29068372 3.88080692 50.94041252 C3.96832 58.67218207 4.08750763 66.40099115 4.2824707 74.13085938 C4.45241137 80.87188118 4.56169681 87.61075954 4.59950441 94.35386384 C4.62159895 97.92275233 4.67310627 101.48551237 4.79741096 105.05242538 C5.52528097 126.7491392 5.52528097 126.7491392 1.29862595 132.19022369 C-3.22842456 136.08655216 -8.32984653 138.28154443 -14 140 C-14.99 140.33 -15.98 140.66 -17 141 C-17 140.01 -17 139.02 -17 138 C-14.03 137.01 -14.03 137.01 -11 136 C-11 135.34 -11 134.68 -11 134 C-10.16855469 133.72736328 -10.16855469 133.72736328 -9.3203125 133.44921875 C-8.23363281 133.07216797 -8.23363281 133.07216797 -7.125 132.6875 C-6.40570313 132.44386719 -5.68640625 132.20023438 -4.9453125 131.94921875 C-2.66005095 131.03664453 -2.66005095 131.03664453 -1 128 C-4.96 126.68 -8.92 125.36 -13 124 C-9 123 -9 123 2 126 C2 85.08 2 44.16 2 2 C1.34 2 0.68 2 0 2 C0 1.34 0 0.68 0 0 Z " fill="#3E7EA5" transform="translate(357,186)"/>
<path d="M0 0 C2.475 0.495 2.475 0.495 5 1 C4.34 1.66 3.68 2.32 3 3 C3.7425 3.78375 4.485 4.5675 5.25 5.375 C8.10951146 8.77571843 9.52446147 12.38046066 11.0078125 16.53515625 C12.09424493 19.23412816 13.46705143 21.52798125 15 24 C16.24519128 26.17841815 17.4736884 28.36644254 18.6875 30.5625 C19.31011719 31.67753906 19.93273437 32.79257813 20.57421875 33.94140625 C22 37 22 37 22 41 C23.485 41.495 23.485 41.495 25 42 C25.06058594 42.62648437 25.12117188 43.25296875 25.18359375 43.8984375 C25.30927734 45.12433594 25.30927734 45.12433594 25.4375 46.375 C25.51871094 47.18710938 25.59992188 47.99921875 25.68359375 48.8359375 C25.89090114 51.04272805 25.89090114 51.04272805 27 53 C28.11361807 60.53055019 28.1171824 67.96164603 28.0625 75.5625 C28.05798828 76.76197266 28.05347656 77.96144531 28.04882812 79.19726562 C28.03713769 82.13156359 28.02075138 85.06575449 28 88 C27.67 88 27.34 88 27 88 C26.94465088 87.13197754 26.88930176 86.26395508 26.83227539 85.36962891 C26.62510399 82.15275935 26.41408491 78.93617213 26.20043945 75.71972656 C26.10872227 74.32692398 26.01854468 72.93401914 25.92993164 71.54101562 C25.80238058 69.5401029 25.6688538 67.53957392 25.53515625 65.5390625 C25.456604 64.33459473 25.37805176 63.13012695 25.29711914 61.88916016 C25.17835616 59.06223927 25.17835616 59.06223927 24 57 C23.92934383 54.95944995 23.91578024 52.91665743 23.9375 50.875 C23.94652344 49.77929688 23.95554687 48.68359375 23.96484375 47.5546875 C23.97644531 46.71164063 23.98804688 45.86859375 24 45 C23.36320312 44.88785156 22.72640625 44.77570313 22.0703125 44.66015625 C21.38710938 44.44230469 20.70390625 44.22445312 20 44 C18.875 41.4375 18.875 41.4375 18 38 C17.814375 37.28199219 17.62875 36.56398437 17.4375 35.82421875 C16.94199171 33.88691897 16.46920239 31.94383848 16 30 C15.34 30 14.68 30 14 30 C13.04635413 28.09270826 12.09292936 26.18530565 11.140625 24.27734375 C10.42609995 22.85074065 9.70792218 21.42595475 8.984375 20.00390625 C6.79890485 15.69367346 4.80733654 11.33640981 2.9296875 6.8828125 C2.03875655 4.82478369 2.03875655 4.82478369 0 3 C0 2.01 0 1.02 0 0 Z " fill="#726770" transform="translate(246,123)"/>
<path d="M0 0 C1.5627962 0.14262412 3.12522696 0.28925511 4.6875 0.4375 C5.99267578 0.55931641 5.99267578 0.55931641 7.32421875 0.68359375 C10 1 10 1 12.25390625 1.5 C15.39833197 2.07252702 18.41871466 2.21429682 21.61328125 2.31640625 C22.86044922 2.35830078 24.10761719 2.40019531 25.39257812 2.44335938 C26.68615234 2.48267578 27.97972656 2.52199219 29.3125 2.5625 C31.28186523 2.62727539 31.28186523 2.62727539 33.29101562 2.69335938 C36.52724288 2.79927227 39.76354458 2.90134885 43 3 C39.69711664 5.20192224 38.72537273 5.23959968 34.89453125 5.1953125 C33.91162109 5.18886719 32.92871094 5.18242187 31.91601562 5.17578125 C30.37977539 5.15064453 30.37977539 5.15064453 28.8125 5.125 C27.77673828 5.11597656 26.74097656 5.10695313 25.67382812 5.09765625 C23.11565315 5.0740786 20.55794252 5.0411703 18 5 C18.66 6.32 19.32 7.64 20 9 C20.99 9 21.98 9 23 9 C23 10.65 23 12.3 23 14 C17.92365174 12.2010497 13.36286389 9.50973545 8.6875 6.875 C7.85154297 6.40707031 7.01558594 5.93914062 6.15429688 5.45703125 C4.10133767 4.3073741 2.04997798 3.15496198 0 2 C0 1.34 0 0.68 0 0 Z " fill="#343751" transform="translate(141,320)"/>
<path d="M0 0 C0.66 0 1.32 0 2 0 C2.06058594 0.84304687 2.12117188 1.68609375 2.18359375 2.5546875 C2.26738281 3.65039062 2.35117187 4.74609375 2.4375 5.875 C2.51871094 6.96554688 2.59992188 8.05609375 2.68359375 9.1796875 C2.83001703 11.94728971 2.83001703 11.94728971 4 14 C5.25353098 22.45466641 5.1830893 31.03662006 5.1875 39.5625 C5.19974609 40.81224609 5.21199219 42.06199219 5.22460938 43.34960938 C5.23472588 49.76684387 4.90998997 55.70253526 3.46118164 61.9597168 C2.92072961 64.35069488 2.73578641 66.67917688 2.625 69.125 C2.20219879 74.16670497 0.50602681 77.63466298 -2 82 C-2.33 82 -2.66 82 -3 82 C-2.54104359 78.299362 -1.9640697 74.86118494 -1.02734375 71.2421875 C2.05246483 59.2707411 2.36515651 47.59950901 2.3125 35.3125 C2.30977081 34.46661316 2.30704163 33.62072632 2.30422974 32.74920654 C2.29175827 30.32868497 2.26849104 27.90864188 2.23828125 25.48828125 C2.23072815 24.74750839 2.22317505 24.00673553 2.21539307 23.24351501 C2.44792724 19.83250076 2.44792724 19.83250076 1 17 C0.76298761 14.14122091 0.57780818 11.30116703 0.4375 8.4375 C0.37272461 7.22803711 0.37272461 7.22803711 0.30664062 5.99414062 C0.20024738 3.99631195 0.09959112 1.9981793 0 0 Z " fill="#A85D4B" transform="translate(268,168)"/>
<path d="M0 0 C3.39103709 4.52138279 3.29035921 4.97704937 2.70727539 10.26391602 C2.09453398 16.87178989 1.85711907 23.43062511 1.79467773 30.06616211 C1.7844008 31.07129128 1.77412386 32.07642046 1.7635355 33.11200809 C1.7334648 36.33376638 1.70845962 39.55554146 1.68359375 42.77734375 C1.66297783 45.04277383 1.64198031 47.30820047 1.62062073 49.57362366 C1.56587824 55.48681824 1.51626158 61.40004472 1.46777344 67.31329346 C1.41720531 73.36709372 1.36170508 79.42084864 1.30664062 85.47460938 C1.19964558 97.31636736 1.09807468 109.15816501 1 121 C1.66 121 2.32 121 3 121 C3 120.34 3 119.68 3 119 C3.66 119.33 4.32 119.66 5 120 C3.69593116 122.01920337 2.36176581 124.01924973 1 126 C0.67 126 0.34 126 0 126 C0 84.42 0 42.84 0 0 Z " fill="#DEA536" transform="translate(133,188)"/>
<path d="M0 0 C1.07314453 0.39832031 1.07314453 0.39832031 2.16796875 0.8046875 C3.16441406 1.15789062 4.16085938 1.51109375 5.1875 1.875 C6.15042969 2.22304688 7.11335937 2.57109375 8.10546875 2.9296875 C19.48087525 6.34781241 31.07012007 6.25681111 42.8125 6.125 C44.39127029 6.11493897 45.97004687 6.1058187 47.54882812 6.09765625 C51.36604453 6.07591564 55.18295009 6.04156265 59 6 C52.55423099 10.29717934 44.72816117 9.18365321 37.25 9.1875 C36.0125 9.19974609 34.775 9.21199219 33.5 9.22460938 C26.63875727 9.23555817 20.63913038 8.69696713 14 7 C12.205625 7.061875 12.205625 7.061875 10.375 7.125 C5.88619414 6.95874793 3.7283642 5.43485009 0 3 C0 2.01 0 1.02 0 0 Z " fill="#A05D55" transform="translate(133,314)"/>
<path d="M0 0 C1.6260287 0.06000106 3.25101549 0.1487885 4.875 0.25 C6.23238281 0.31960938 6.23238281 0.31960938 7.6171875 0.390625 C8.40351563 0.59171875 9.18984375 0.7928125 10 1 C11.15625 3 11.15625 3 12 5 C14.55519921 5.81171228 14.55519921 5.81171228 17 6 C17 6.66 17 7.32 17 8 C20.63 7.67 24.26 7.34 28 7 C28 8.32 28 9.64 28 11 C27.34 11 26.68 11 26 11 C26.495 11.433125 26.99 11.86625 27.5 12.3125 C29 14 29 14 29 17 C21.71734394 13.54810522 14.70082782 9.76008538 7.75 5.6875 C6.98695557 5.24293457 6.22391113 4.79836914 5.43774414 4.34033203 C3.60672992 3.25746742 1.80054382 2.1328066 0 1 C0 0.67 0 0.34 0 0 Z " fill="#1C4978" transform="translate(187,347)"/>
<path d="M0 0 C-5.83145633 4.58492881 -11.95647118 8.17749039 -18.625 11.375 C-19.68062134 11.89320313 -19.68062134 11.89320313 -20.75756836 12.421875 C-25.55365492 14.65859486 -29.72231454 15.58490114 -35 16 C-32.31767339 14.21178226 -29.69711039 12.79857396 -26.8125 11.375 C-25.46091797 10.70597656 -25.46091797 10.70597656 -24.08203125 10.0234375 C-23.39496094 9.68570312 -22.70789063 9.34796875 -22 9 C-22 8.01 -22 7.02 -22 6 C-20.68 6 -19.36 6 -18 6 C-17.67 4.68 -17.34 3.36 -17 2 C-15.68 2 -14.36 2 -13 2 C-13 2.66 -13 3.32 -13 4 C-11.35 3.67 -9.7 3.34 -8 3 C-7.67 2.01 -7.34 1.02 -7 0 C-4.05610218 -1.17755913 -3.10046087 -1.03348696 0 0 Z " fill="#AD5849" transform="translate(227,304)"/>
<path d="M0 0 C1.13643966 3.40931897 0.86747764 4.00335456 -0.4375 7.1875 C-0.86869141 8.26064453 -0.86869141 8.26064453 -1.30859375 9.35546875 C-1.65083984 10.16951172 -1.65083984 10.16951172 -2 11 C-2.66 11 -3.32 11 -4 11 C-4.268125 11.86625 -4.53625 12.7325 -4.8125 13.625 C-5.97111987 16.91791964 -7.38209839 19.91127875 -9 23 C-9.66 23 -10.32 23 -11 23 C-11.45375 24.0725 -11.9075 25.145 -12.375 26.25 C-14.28244841 30.68882855 -16.31281108 34.96921663 -19 39 C-19.66 39 -20.32 39 -21 39 C-21.28875 39.721875 -21.5775 40.44375 -21.875 41.1875 C-22.24625 42.115625 -22.6175 43.04375 -23 44 C-23.4640625 45.36125 -23.4640625 45.36125 -23.9375 46.75 C-24.288125 47.4925 -24.63875 48.235 -25 49 C-26.485 49.495 -26.485 49.495 -28 50 C-26.74136969 45.80047252 -25.19025778 42.42423939 -22.8125 38.75 C-18.41608715 31.77414197 -14.29287506 24.64949335 -10.1875 17.5 C-9.68955429 16.63296448 -9.68955429 16.63296448 -9.18154907 15.74841309 C-8.69203262 14.89600037 -8.69203262 14.89600037 -8.19262695 14.02636719 C-7.56573975 12.93485352 -6.93885254 11.84333984 -6.29296875 10.71875 C-5.7311792 9.73841797 -5.16938965 8.75808594 -4.59057617 7.74804688 C-3.08627736 5.14906186 -1.55258952 2.57036891 0 0 Z " fill="#BF5D26" transform="translate(229,149)"/>
<path d="M0 0 C-0.99 0.66 -1.98 1.32 -3 2 C-4.20482939 3.7179646 -4.20482939 3.7179646 -5.1875 5.625 C-5.785625 6.73875 -6.38375 7.8525 -7 9 C-7.66 9 -8.32 9 -9 9 C-9 8.34 -9 7.68 -9 7 C-10.65 7.66 -12.3 8.32 -14 9 C-13.34 10.32 -12.68 11.64 -12 13 C-12.99 13.33 -13.98 13.66 -15 14 C-15.33 13.01 -15.66 12.02 -16 11 C-16.66 10.67 -17.32 10.34 -18 10 C-18 10.66 -18 11.32 -18 12 C-20.70879335 13.35439668 -23.00933268 13.06501451 -26 13 C-21.92890032 9.53320418 -17.63265186 6.87402974 -13 4.25 C-11.95199219 3.63318359 -11.95199219 3.63318359 -10.8828125 3.00390625 C-7.13826654 0.87728675 -4.44354752 -0.59015865 0 0 Z " fill="#DAB067" transform="translate(247,122)"/>
<path d="M0 0 C5.61686498 5.61686498 5.57756479 16.46899994 6 24 C5.01 24.33 4.02 24.66 3 25 C3 23.68 3 22.36 3 21 C2.34 21 1.68 21 1 21 C-1.31293038 16.52421488 -1.06054199 12.56121482 -0.625 7.6875 C-0.56828125 6.94693359 -0.5115625 6.20636719 -0.453125 5.44335938 C-0.31258589 3.62806257 -0.15772905 1.81388403 0 0 Z " fill="#0F2D3E" transform="translate(273,211)"/>
<path d="M0 0 C0.66 0.33 1.32 0.66 2 1 C-3.5282198 11.1080317 -9.16567923 21.15393746 -14.9375 31.125 C-15.49268311 32.10291504 -16.04786621 33.08083008 -16.61987305 34.08837891 C-17.14621338 34.98991699 -17.67255371 35.89145508 -18.21484375 36.8203125 C-18.68011475 37.62742676 -19.14538574 38.43454102 -19.62475586 39.26611328 C-20.07858643 39.8382959 -20.53241699 40.41047852 -21 41 C-21.99 41 -22.98 41 -24 41 C-23.01 40.505 -23.01 40.505 -22 40 C-20.95385848 37.69848866 -20.11982934 35.35540293 -19.3125 32.9609375 C-19.065 32.25195312 -18.8175 31.54296875 -18.5625 30.8125 C-18.33691406 30.13832031 -18.11132812 29.46414062 -17.87890625 28.76953125 C-17 27 -17 27 -14 25 C-12.59399464 22.96255395 -12.59399464 22.96255395 -11.375 20.625 C-10.94960937 19.85414063 -10.52421875 19.08328125 -10.0859375 18.2890625 C-8.93324179 16.06664016 -8.93324179 16.06664016 -8.4765625 13.7734375 C-8.31929687 13.18820313 -8.16203125 12.60296875 -8 12 C-7.34 11.67 -6.68 11.34 -6 11 C-4.94647157 8.69034152 -3.94280904 6.3570226 -3 4 C-2.34 4 -1.68 4 -1 4 C-0.67 2.68 -0.34 1.36 0 0 Z " fill="#E89A3A" transform="translate(226,151)"/>
<path d="M0 0 C0.99 0 1.98 0 3 0 C3.3403125 1.0415625 3.680625 2.083125 4.03125 3.15625 C6.64137549 10.94634393 9.49339294 18.4654841 13.1875 25.8125 C13.52007812 26.47507812 13.85265625 27.13765625 14.1953125 27.8203125 C15.88812584 31.10396248 17.66640358 34.13177158 20 37 C19.67 37.66 19.34 38.32 19 39 C18.34 37.68 17.68 36.36 17 35 C16.34 35 15.68 35 15 35 C12.14623883 32.77881058 11.470932 30.80725447 10.8125 27.3125 C10.65394531 26.50425781 10.49539063 25.69601562 10.33203125 24.86328125 C10.22246094 24.24839844 10.11289062 23.63351562 10 23 C9.34 23 8.68 23 8 23 C7.81824219 22.43152344 7.63648438 21.86304688 7.44921875 21.27734375 C6.22372748 17.51288594 4.9786994 13.84423014 3.3125 10.25 C2.06659522 7.16490245 1.70259831 5.27141856 2 2 C1.34 2 0.68 2 0 2 C0 1.34 0 0.68 0 0 Z " fill="#19729E" transform="translate(273,237)"/>
<path d="M0 0 C4.55918951 1.24341532 6.79152506 2.60279124 10 6 C14.08566872 9.36873319 17.93395452 12.31131817 23 14 C24.27455531 14.5328498 25.54524587 15.07501171 26.8125 15.625 C27.864375 16.07875 28.91625 16.5325 30 17 C30 17.66 30 18.32 30 19 C31.32 19.66 32.64 20.32 34 21 C28.46559634 20.53939022 24.53804741 19.0224514 19.8125 16.0625 C19.17046631 15.66933594 18.52843262 15.27617187 17.86694336 14.87109375 C11.44605395 10.83533275 5.53117995 6.19127503 0 1 C0 0.67 0 0.34 0 0 Z " fill="#1972A2" transform="translate(313,288)"/>
<path d="M0 0 C0.33 0 0.66 0 1 0 C0.74010995 5.96447664 0.23844821 9.51223131 -4 14 C-4.495 14.845625 -4.99 15.69125 -5.5 16.5625 C-7.06719945 19.1091991 -8.81848035 20.96892998 -11 23 C-11.66 22.67 -12.32 22.34 -13 22 C-11.47025221 19.45042035 -9.94004176 16.90314439 -8.375 14.375 C-6.88056866 11.97779417 -6.88056866 11.97779417 -6 9 C-5.34 9 -4.68 9 -4 9 C-3.896875 8.443125 -3.79375 7.88625 -3.6875 7.3125 C-2.86410318 4.54289253 -1.59831722 2.39747583 0 0 Z " fill="#52677F" transform="translate(259,262)"/>
<path d="M0 0 C0.99 0.33 1.98 0.66 3 1 C3.06058594 1.62648437 3.12117188 2.25296875 3.18359375 2.8984375 C3.26738281 3.71570313 3.35117187 4.53296875 3.4375 5.375 C3.51871094 6.18710938 3.59992188 6.99921875 3.68359375 7.8359375 C3.89090114 10.04272805 3.89090114 10.04272805 5 12 C6.11361807 19.53055019 6.1171824 26.96164603 6.0625 34.5625 C6.05798828 35.76197266 6.05347656 36.96144531 6.04882812 38.19726562 C6.03713769 41.13156359 6.02075138 44.06575449 6 47 C5.67 47 5.34 47 5 47 C4.94465088 46.13197754 4.88930176 45.26395508 4.83227539 44.36962891 C4.62510399 41.15275935 4.41408491 37.93617213 4.20043945 34.71972656 C4.10872227 33.32692398 4.01854468 31.93401914 3.92993164 30.54101562 C3.80238058 28.5401029 3.6688538 26.53957392 3.53515625 24.5390625 C3.456604 23.33459473 3.37805176 22.13012695 3.29711914 20.88916016 C3.17835616 18.06223927 3.17835616 18.06223927 2 16 C1.92934383 13.95944995 1.91578024 11.91665743 1.9375 9.875 C1.94652344 8.77929688 1.95554687 7.68359375 1.96484375 6.5546875 C1.97644531 5.71164063 1.98804688 4.86859375 2 4 C1.34 4 0.68 4 0 4 C0 2.68 0 1.36 0 0 Z " fill="#4C6A85" transform="translate(268,164)"/>
<path d="M0 0 C5.13503344 0.64187918 9.9943454 1.68272247 15 3 C15 4.65 15 6.3 15 8 C9.06 11.3 3.12 14.6 -3 18 C-3.33 17.01 -3.66 16.02 -4 15 C-2.02 14.34 -0.04 13.68 2 13 C2 12.34 2 11.68 2 11 C2.55429687 10.81824219 3.10859375 10.63648438 3.6796875 10.44921875 C4.76636719 10.07216797 4.76636719 10.07216797 5.875 9.6875 C6.59429687 9.44386719 7.31359375 9.20023437 8.0546875 8.94921875 C10.33994905 8.03664453 10.33994905 8.03664453 12 5 C8.04 3.68 4.08 2.36 0 1 C0 0.67 0 0.34 0 0 Z " fill="#1E6EA1" transform="translate(344,309)"/>
<path d="M0 0 C0.33 0 0.66 0 1 0 C1.33865898 3.52034206 1.66996095 7.04134018 2 10.5625 C2.14308594 12.0484668 2.14308594 12.0484668 2.2890625 13.56445312 C2.77008121 18.73540428 3.11653634 23.80684952 3 29 C3.66 29 4.32 29 5 29 C5 31.97 5 34.94 5 38 C-0.33361958 29.99957062 -0.40990172 20.62485938 -0.1875 11.3125 C-0.17396484 10.21744141 -0.16042969 9.12238281 -0.14648438 7.99414062 C-0.11156837 5.32888586 -0.06253717 2.66472496 0 0 Z " fill="#21719D" transform="translate(274,189)"/>
<path d="M0 0 C0.66 0 1.32 0 2 0 C2.06058594 0.84304687 2.12117188 1.68609375 2.18359375 2.5546875 C2.26738281 3.65039062 2.35117187 4.74609375 2.4375 5.875 C2.51871094 6.96554688 2.59992188 8.05609375 2.68359375 9.1796875 C2.83001703 11.94728971 2.83001703 11.94728971 4 14 C5.17841074 22.01813738 5.1240641 30.10365991 5.0625 38.1875 C5.05798828 39.33025391 5.05347656 40.47300781 5.04882812 41.65039062 C5.03718268 44.4336511 5.02082997 47.21679572 5 50 C4.67 50 4.34 50 4 50 C3.94465088 49.03586182 3.88930176 48.07172363 3.83227539 47.07836914 C3.62636372 43.51297942 3.41434216 39.94797513 3.20043945 36.38305664 C3.10859212 34.83790808 3.01841863 33.2926591 2.92993164 31.74731445 C2.80270699 29.53047826 2.66953438 27.31406885 2.53515625 25.09765625 C2.49656998 24.4028566 2.4579837 23.70805695 2.41822815 22.99220276 C2.47227354 19.71052724 2.47227354 19.71052724 1 17 C0.76298761 14.14122091 0.57780818 11.30116703 0.4375 8.4375 C0.39431641 7.63119141 0.35113281 6.82488281 0.30664062 5.99414062 C0.20024738 3.99631195 0.09959112 1.9981793 0 0 Z " fill="#97645A" transform="translate(268,168)"/>
<path d="M0 0 C11.70615034 2.70615034 11.70615034 2.70615034 16 7 C14.14375 6.9690625 14.14375 6.9690625 12.25 6.9375 C9.29785395 6.92708679 6.85723652 7.25923498 4 8 C3.01 7.67 2.02 7.34 1 7 C0.67 7.66 0.34 8.32 0 9 C0 6.03 0 3.06 0 0 Z " fill="#0B7AB1" transform="translate(264,135)"/>
<path d="M0 0 C2.36525555 1.05122469 4.18452491 2.15289207 6.1875 3.8125 C9.17208091 6.13384071 12.21076572 7.84919138 15.53125 9.63671875 C18.13687596 11.07558498 20.65680304 12.62105956 23.1875 14.1875 C26.70413709 16.32162142 29.99154838 17.94514431 34 19 C33.67 19.66 33.34 20.32 33 21 C28.29019637 19.57475989 24.01235092 17.63104527 19.6875 15.3125 C19.03104492 14.9609082 18.37458984 14.60931641 17.69824219 14.24707031 C10.85725925 10.49817124 4.54623899 6.45453684 0 0 Z " fill="#1473A9" transform="translate(259,297)"/>
<path d="M0 0 C3.63 0 7.26 0 11 0 C11.66 1.32 12.32 2.64 13 4 C13.99 4 14.98 4 16 4 C16 5.65 16 7.3 16 9 C12.20950293 7.57250019 8.72877544 5.83763458 5.1875 3.875 C4.21167969 3.33617187 3.23585937 2.79734375 2.23046875 2.2421875 C1.49441406 1.83226562 0.75835937 1.42234375 0 1 C0 0.67 0 0.34 0 0 Z " fill="#2C597C" transform="translate(148,325)"/>
<path d="M0 0 C4.39383706 1.59623144 8.28995807 3.78024333 12.3125 6.125 C12.95767578 6.49753906 13.60285156 6.87007812 14.26757812 7.25390625 C15.84675945 8.16632213 17.42361864 9.08275509 19 10 C16 12 16 12 12.5 11.3125 C7.80851064 9.55319149 7.80851064 9.55319149 6 7 C6 6.34 6 5.68 6 5 C4.35 4.67 2.7 4.34 1 4 C0.67 2.68 0.34 1.36 0 0 Z " fill="#3987B0" transform="translate(291,148)"/>
<path d="M0 0 C0.66 0 1.32 0 2 0 C2.33 1.98 2.66 3.96 3 6 C3.66 6 4.32 6 5 6 C5.36351562 6.7734375 5.72703125 7.546875 6.1015625 8.34375 C8.92814544 14.19985004 11.7518365 19.43259141 15.99609375 24.37890625 C16.32738281 24.91386719 16.65867187 25.44882812 17 26 C16.67 26.99 16.34 27.98 16 29 C11.25575968 22.93090534 7.13450331 16.78171274 3.5 10 C3.15001953 9.35345459 2.80003906 8.70690918 2.43945312 8.04077148 C0.93118024 5.16116901 0 3.29797516 0 0 Z " fill="#1B709F" transform="translate(287,249)"/>
<path d="M0 0 C1.4013223 3.89256193 0.91553728 7.01087329 0 11 C-1.49905577 14.10695388 -3.19454767 17.06197611 -5 20 C-5.66 20 -6.32 20 -7 20 C-6.36598438 12.55031652 -3.32420218 6.60368416 0 0 Z " fill="#2A719A" transform="translate(267,246)"/>
<path d="M0 0 C-0.5625 1.8125 -0.5625 1.8125 -2 4 C-5.50990464 5.78686054 -8.04124604 7 -12 7 C-12 7.66 -12 8.32 -12 9 C-14.95481492 11.74375671 -15.77471908 12 -20 12 C-20.33 12.66 -20.66 13.32 -21 14 C-21.66 13.34 -22.32 12.68 -23 12 C-19.54565686 9.99304709 -16.0858937 7.99563221 -12.625 6 C-11.64015625 5.42765625 -10.6553125 4.8553125 -9.640625 4.265625 C-8.69960937 3.72421875 -7.75859375 3.1828125 -6.7890625 2.625 C-5.91975098 2.12226563 -5.05043945 1.61953125 -4.15478516 1.1015625 C-2 0 -2 0 0 0 Z " fill="#E0BA71" transform="translate(184,157)"/>
<path d="M0 0 C5.3582596 0.4540898 8.42061992 1.10775995 13 4 C16.19395026 4.71401232 16.19395026 4.71401232 19 5 C19 5.66 19 6.32 19 7 C16.95703125 8.2421875 16.95703125 8.2421875 14 9 C11.31636235 7.82498594 9.12790624 6.67821427 6.6875 5.125 C6.04232422 4.73441406 5.39714844 4.34382813 4.73242188 3.94140625 C3.14496999 2.97717621 1.5710743 1.99069097 0 1 C0 0.67 0 0.34 0 0 Z " fill="#2C5479" transform="translate(164,334)"/>
<path d="M0 0 C1.6260287 0.06000106 3.25101549 0.1487885 4.875 0.25 C6.23238281 0.31960938 6.23238281 0.31960938 7.6171875 0.390625 C10 1 10 1 11.1875 2.96875 C11.455625 3.6390625 11.72375 4.309375 12 5 C14.0335948 6.26804566 14.0335948 6.26804566 16 7 C16 7.66 16 8.32 16 9 C10.0942118 7.44584521 5.02261107 4.40465533 0 1 C0 0.67 0 0.34 0 0 Z " fill="#375A7D" transform="translate(187,347)"/>
<path d="M0 0 C5.36716665 -0.83861979 8.79627239 2.07929595 13 5 C12.34 5.66 11.68 6.32 11 7 C8.875 6.625 8.875 6.625 7 6 C7.33 7.98 7.66 9.96 8 12 C5.19250745 10.59625372 5.15755283 8.89388208 4 6 C2.70211044 3.97681922 1.37535339 1.97133986 0 0 Z " fill="#36789E" transform="translate(248,125)"/>
<path d="M0 0 C0 0.66 0 1.32 0 2 C-3.27345019 5.26382239 -6.57122708 6.95469744 -11.203125 7.1015625 C-14.16361156 6.84199377 -17.06991754 6.49323055 -20 6 C-20 5.67 -20 5.34 -20 5 C-17.04283593 4.16247839 -14.084087 3.33069969 -11.125 2.5 C-10.28324219 2.26152344 -9.44148437 2.02304687 -8.57421875 1.77734375 C-7.76855469 1.55175781 -6.96289062 1.32617188 -6.1328125 1.09375 C-5.01737061 0.77954102 -5.01737061 0.77954102 -3.87939453 0.45898438 C-2 0 -2 0 0 0 Z " fill="#1E3A60" transform="translate(204,317)"/>
<path d="M0 0 C5.71937959 1.85493392 11.35555275 3.93103891 17 6 C12.6674997 7.33699892 9.21040798 6.32207053 4.9375 5.1875 C4.21755859 5.00896484 3.49761719 4.83042969 2.75585938 4.64648438 C-0.60952333 3.78092169 -3.08440693 2.94372871 -6 1 C-4.7934375 1.0309375 -4.7934375 1.0309375 -3.5625 1.0625 C-1.06645115 1.29633621 -1.06645115 1.29633621 0 0 Z " fill="#023F68" transform="translate(341,308)"/>
<path d="M0 0 C4.62 0.66 9.24 1.32 14 2 C9 6 9 6 7.0625 5.9375 C4.33419645 4.69736202 1.65597169 3.38834884 -1 2 C-0.67 1.34 -0.34 0.68 0 0 Z " fill="#3C6083" transform="translate(238,375)"/>
<path d="M0 0 C0.66 0.33 1.32 0.66 2 1 C1.3125 2.9375 1.3125 2.9375 0 5 C-1.65 5.33 -3.3 5.66 -5 6 C-5 12.6 -5 19.2 -5 26 C-5.33 26 -5.66 26 -6 26 C-6.1743959 22.41728224 -6.28087658 18.83565398 -6.375 15.25 C-6.42527344 14.23421875 -6.47554687 13.2184375 -6.52734375 12.171875 C-6.67307052 4.78838512 -6.67307052 4.78838512 -4.63769531 2.40429688 C-2.9765625 1.296875 -2.9765625 1.296875 0 0 Z " fill="#CFA852" transform="translate(138,182)"/>
<path d="M0 0 C0.66 0.33 1.32 0.66 2 1 C-0.72038643 6.20421752 -3.43231829 8.09801569 -8.78125 10.43359375 C-11.26358069 11.06728732 -12.60772748 10.8318584 -15 10 C-14.00419922 9.41992188 -14.00419922 9.41992188 -12.98828125 8.828125 C-8.41482889 6.13078959 -4.02747372 3.49047722 0 0 Z " fill="#2C3858" transform="translate(228,302)"/>
<path d="M0 0 C0.75 1.5625 0.75 1.5625 1 4 C-0.13084437 6.50286409 -1.52139516 8.67007722 -3 11 C-3.33 11 -3.66 11 -4 11 C-3.95875 10.0925 -3.9175 9.185 -3.875 8.25 C-3.99531556 5.1217954 -4.3914708 3.61385994 -6 1 C-4 0 -4 0 0 0 Z " fill="#E69C36" transform="translate(238,129)"/>
<path d="M0 0 C0.66 0.33 1.32 0.66 2 1 C1.525625 1.433125 1.05125 1.86625 0.5625 2.3125 C-1.23686957 4.02309613 -1.23686957 4.02309613 -2 7 C-3.7295656 8.63097472 -5.53217844 10.18567298 -7.375 11.6875 C-8.35210937 12.49574219 -9.32921875 13.30398438 -10.3359375 14.13671875 C-13 16 -13 16 -16 16 C-15.43152344 15.5153125 -14.86304688 15.030625 -14.27734375 14.53125 C-9.06929336 10.01007103 -4.39529346 5.31392393 0 0 Z " fill="#333D56" transform="translate(246,285)"/>
<path d="M0 0 C0.99 0.33 1.98 0.66 3 1 C-1.95 9.91 -1.95 9.91 -7 19 C-7.66 19 -8.32 19 -9 19 C-4.8 7.8 -4.8 7.8 -1 4 C-0.3574765 1.93125966 -0.3574765 1.93125966 0 0 Z " fill="#E89C36" transform="translate(162,260)"/>
<path d="M0 0 C-0.625 2.375 -0.625 2.375 -2 5 C-4.9375 6.1875 -4.9375 6.1875 -8 7 C-8.99 7.66 -9.98 8.32 -11 9 C-13.1875 8.625 -13.1875 8.625 -15 8 C-12.8782637 6.66121428 -10.75294812 5.32884524 -8.625 4 C-8.02171875 3.6184375 -7.4184375 3.236875 -6.796875 2.84375 C-2.2265625 0 -2.2265625 0 0 0 Z " fill="#E0BE7C" transform="translate(199,148)"/>
<path d="M0 0 C0.66 0.33 1.32 0.66 2 1 C-1.51548654 6.04395895 -6.11736877 9.37975847 -11 13 C-11.33 12.01 -11.66 11.02 -12 10 C-11 8 -11 8 -8.75 7.1875 C-5.36921559 5.72761582 -3.4792436 3.68584723 -1 1 C-0.67 0.67 -0.34 0.34 0 0 Z " fill="#9E5C59" transform="translate(239,290)"/>
<path d="M0 0 C2.12508244 3.18762365 2.5020163 5.26512223 3 9 C2.34 9 1.68 9 1 9 C0.34 11.64 -0.32 14.28 -1 17 C-1.66 17 -2.32 17 -3 17 C-2.88506243 15.10353002 -2.75760358 13.20781668 -2.625 11.3125 C-2.55539062 10.25675781 -2.48578125 9.20101562 -2.4140625 8.11328125 C-2.01239911 5.09322731 -1.25930981 2.75921946 0 0 Z " fill="#3A6D8E" transform="translate(272,227)"/>
<path d="M0 0 C1.89693861 0.28438952 3.79252027 0.57783792 5.6875 0.875 C6.74324219 1.03742188 7.79898437 1.19984375 8.88671875 1.3671875 C11.79794914 1.95893069 14.28955607 2.8031806 17 4 C16.67 4.99 16.34 5.98 16 7 C15.34 7 14.68 7 14 7 C14 6.34 14 5.68 14 5 C13.07316406 4.80664062 12.14632813 4.61328125 11.19140625 4.4140625 C9.99386719 4.15367187 8.79632813 3.89328125 7.5625 3.625 C5.77005859 3.24214844 5.77005859 3.24214844 3.94140625 2.8515625 C2.48541016 2.43003906 2.48541016 2.43003906 1 2 C0.67 1.34 0.34 0.68 0 0 Z " fill="#1974A3" transform="translate(338,311)"/>
<path d="M0 0 C1.98 0 3.96 0 6 0 C5.67 2.64 5.34 5.28 5 8 C3.0625 7.375 3.0625 7.375 1 6 C0.25 2.875 0.25 2.875 0 0 Z " fill="#1078AF" transform="translate(255,131)"/>
<path d="M0 0 C10.55808656 0.96355353 10.55808656 0.96355353 15 2 C15 2.33 15 2.66 15 3 C12.36 3 9.72 3 7 3 C7 3.66 7 4.32 7 5 C2.25 3.125 2.25 3.125 0 2 C0 1.34 0 0.68 0 0 Z " fill="#52566A" transform="translate(141,320)"/>
<path d="M0 0 C0.33 0.66 0.66 1.32 1 2 C0.28735352 3.69580078 0.28735352 3.69580078 -0.87109375 5.6953125 C-1.28037109 6.41074219 -1.68964844 7.12617188 -2.11132812 7.86328125 C-2.54896484 8.60964844 -2.98660156 9.35601562 -3.4375 10.125 C-3.87126953 10.87910156 -4.30503906 11.63320312 -4.75195312 12.41015625 C-5.82748966 14.27757134 -6.91284139 16.13932697 -8 18 C-9 16 -9 16 -8.0625 12.875 C-7.711875 11.92625 -7.36125 10.9775 -7 10 C-6.34 10 -5.68 10 -5 10 C-4.80664062 9.36191406 -4.61328125 8.72382813 -4.4140625 8.06640625 C-4.02347656 6.82697266 -4.02347656 6.82697266 -3.625 5.5625 C-3.36976563 4.73878906 -3.11453125 3.91507813 -2.8515625 3.06640625 C-2 1 -2 1 0 0 Z " fill="#E99A39" transform="translate(194,207)"/>
<path d="M0 0 C3.77545388 1.09068668 6.47043472 1.9083091 9 5 C7.35 6.65 5.7 8.3 4 10 C3 7 3 7 4 4 C2.68 3.34 1.36 2.68 0 2 C0 1.34 0 0.68 0 0 Z " fill="#378BB1" transform="translate(320,165)"/>
<path d="M0 0 C2 1 2 1 3.125 4.0625 C3.41375 5.031875 3.7025 6.00125 4 7 C2.35 7.33 0.7 7.66 -1 8 C-1.66 7.01 -2.32 6.02 -3 5 C-2 2 -2 2 0 0 Z " fill="#022B41" transform="translate(290,261)"/>
<path d="M0 0 C0.66 0.33 1.32 0.66 2 1 C1.67 1.99 1.34 2.98 1 4 C-0.64034193 4.72904086 -2.31301918 5.38655243 -4 6 C-5.2684375 6.8353125 -5.2684375 6.8353125 -6.5625 7.6875 C-9 9 -9 9 -11.15234375 8.58203125 C-11.76207031 8.38996094 -12.37179688 8.19789063 -13 8 C-10.880788 6.63594382 -8.75551882 5.28368225 -6.625 3.9375 C-6.02171875 3.54755859 -5.4184375 3.15761719 -4.796875 2.75585938 C-3.23507443 1.77539568 -1.62007786 0.88083925 0 0 Z " fill="#E0BB76" transform="translate(219,135)"/>
<path d="M0 0 C0.66 0 1.32 0 2 0 C0.45454854 5.47932789 -2.15543212 10.11429181 -5 15 C-5.99110257 11.88606288 -6.09952347 11.23388016 -4.75 8.0625 C-4.1725 7.051875 -3.595 6.04125 -3 5 C-2.484375 4.05125 -1.96875 3.1025 -1.4375 2.125 C-0.963125 1.42375 -0.48875 0.7225 0 0 Z " fill="#EA9A3A" transform="translate(144,292)"/>
<path d="M0 0 C0.66 0 1.32 0 2 0 C0.42986223 5.96652354 -2.75029782 10.82909025 -6 16 C-6.33 14.68 -6.66 13.36 -7 12 C-6.34 12 -5.68 12 -5 12 C-4.80664062 11.30132812 -4.61328125 10.60265625 -4.4140625 9.8828125 C-4.15367187 8.97273437 -3.89328125 8.06265625 -3.625 7.125 C-3.36976563 6.22007812 -3.11453125 5.31515625 -2.8515625 4.3828125 C-2 2 -2 2 0 0 Z " fill="#EB9C38" transform="translate(174,240)"/>
<path d="M0 0 C0.66 1.32 1.32 2.64 2 4 C1.01 4.33 0.02 4.66 -1 5 C-1.33 4.01 -1.66 3.02 -2 2 C-2.66 1.67 -3.32 1.34 -4 1 C-4 1.66 -4 2.32 -4 3 C-6.70879335 4.35439668 -9.00933268 4.06501451 -12 4 C-7.99899414 0.12023674 -5.51903037 -0.43286513 0 0 Z " fill="#DDAF52" transform="translate(233,131)"/>
<path d="M0 0 C1.65 0 3.3 0 5 0 C-4.42857143 8 -4.42857143 8 -9 8 C-8 5 -8 5 -5.0625 3.3125 C-2 2 -2 2 0 2 C0 1.34 0 0.68 0 0 Z " fill="#55738D" transform="translate(275,361)"/>
<path d="M0 0 C-1.57789598 1.15330947 -3.1625482 2.29737927 -4.75 3.4375 C-5.63171875 4.07558594 -6.5134375 4.71367187 -7.421875 5.37109375 C-9.72699125 6.8275081 -11.34349572 7.55931821 -14 8 C-14 7.34 -14 6.68 -14 6 C-13.030625 5.566875 -12.06125 5.13375 -11.0625 4.6875 C-7.72268235 3.2985139 -7.72268235 3.2985139 -7 0 C-4.05610218 -1.17755913 -3.10046087 -1.03348696 0 0 Z " fill="#995B57" transform="translate(227,304)"/>
<path d="M0 0 C2.475 0.495 2.475 0.495 5 1 C4.34 1.66 3.68 2.32 3 3 C3.845625 3.9075 4.69125 4.815 5.5625 5.75 C8.02603251 8.67025483 8.02603251 8.67025483 7.8125 11.375 C7.544375 11.91125 7.27625 12.4475 7 13 C3.86385799 8.96781741 0.94594673 5.10811235 0 0 Z " fill="#6A737B" transform="translate(246,123)"/>
<path d="M0 0 C0.99 0 1.98 0 3 0 C3 0.66 3 1.32 3 2 C1.21118264 3.00508801 -0.58114696 4.00392736 -2.375 5 C-3.37273437 5.556875 -4.37046875 6.11375 -5.3984375 6.6875 C-8 8 -8 8 -10 8 C-10 7.01 -10 6.02 -10 5 C-8.68 5 -7.36 5 -6 5 C-6 4.34 -6 3.68 -6 3 C-4.02 2.67 -2.04 2.34 0 2 C0 1.34 0 0.68 0 0 Z " fill="#4C6C89" transform="translate(302,346)"/>
<path d="M0 0 C0 0.99 0 1.98 0 3 C-1 4 -2 5 -3 6 C-3.474375 6.99 -3.94875 7.98 -4.4375 9 C-6.00220356 12.00423084 -7.16875599 13.24267613 -10 15 C-10 13.68 -10 12.36 -10 11 C-8.69417053 9.96434215 -7.35622245 8.96873032 -6 8 C-4.96986723 6.35178756 -3.96885372 4.68496298 -3 3 C-1.3125 1.1875 -1.3125 1.1875 0 0 Z " fill="#A65D51" transform="translate(251,275)"/>
<path d="M0 0 C0 0.66 0 1.32 0 2 C-0.99 2 -1.98 2 -3 2 C-3.226875 2.61875 -3.45375 3.2375 -3.6875 3.875 C-5.42148712 6.68240771 -6.84570354 7.17387474 -10 8 C-12.1640625 7.54296875 -12.1640625 7.54296875 -14 7 C-12.04480616 5.82807953 -10.0857461 4.6626071 -8.125 3.5 C-7.03445312 2.8503125 -5.94390625 2.200625 -4.8203125 1.53125 C-2 0 -2 0 0 0 Z " fill="#DEC175" transform="translate(154,174)"/>
<path d="M0 0 C4.95 1.98 4.95 1.98 10 4 C9.01 4.99 8.02 5.98 7 7 C3.535 5.02 3.535 5.02 0 3 C0 2.01 0 1.02 0 0 Z " fill="#9E6B64" transform="translate(133,314)"/>
<path d="M0 0 C2.73092727 1.18094152 4.57318129 2.22689442 6.03515625 4.875 C8.20857864 10.37426409 8.20857864 10.37426409 7 14 C3.51287545 9.84866125 1.70060765 5.10182295 0 0 Z " fill="#A26053" transform="translate(251,134)"/>
<path d="M0 0 C0 0.99 0 1.98 0 3 C-4.95 5.475 -4.95 5.475 -10 8 C-10 7.01 -10 6.02 -10 5 C-8.02 4.34 -6.04 3.68 -4 3 C-4 2.34 -4 1.68 -4 1 C-2 0 -2 0 0 0 Z " fill="#396381" transform="translate(350,319)"/>
<path d="M0 0 C2.64 0.33 5.28 0.66 8 1 C8 1.66 8 2.32 8 3 C8.99 3.33 9.98 3.66 11 4 C11 4.66 11 5.32 11 6 C6.49197399 4.74194623 3.5087188 3.09592835 0 0 Z " fill="#486B88" transform="translate(216,364)"/>
<path d="M0 0 C0.33 0.99 0.66 1.98 1 3 C-1.97 4.65 -4.94 6.3 -8 8 C-8 6.35 -8 4.7 -8 3 C-5.69 3 -3.38 3 -1 3 C-0.67 2.01 -0.34 1.02 0 0 Z " fill="#3D6983" transform="translate(338,325)"/>
<path d="M0 0 C3.45925163 1.2491742 6.14693203 2.67527795 9 5 C6.75 5.75 6.75 5.75 4 6 C1.6875 4.1875 1.6875 4.1875 0 2 C0 1.34 0 0.68 0 0 Z " fill="#4691AF" transform="translate(336,174)"/>
<path d="M0 0 C2.64 1.32 5.28 2.64 8 4 C4.36418334 4.90895417 1.70418498 5.32210304 -2 5 C-2.66 4.01 -3.32 3.02 -4 2 C-2.68 2.33 -1.36 2.66 0 3 C0 2.01 0 1.02 0 0 Z " fill="#3789B0" transform="translate(272,137)"/>
<path d="M0 0 C0.33 0 0.66 0 1 0 C1.56561146 5.65611463 -0.28608722 9.22642128 -3 14 C-3.33 14 -3.66 14 -4 14 C-3.54177532 10.53058454 -3.10868317 7.32604951 -2 4 C-1.34 4 -0.68 4 0 4 C0 2.68 0 1.36 0 0 Z " fill="#8B6665" transform="translate(269,236)"/>
<path d="M0 0 C0.66 0.33 1.32 0.66 2 1 C2 2.65 2 4.3 2 6 C-1.37503669 4.8141763 -3.64722731 3.72426311 -6 1 C-4.7934375 1.0309375 -4.7934375 1.0309375 -3.5625 1.0625 C-1.06645115 1.29633621 -1.06645115 1.29633621 0 0 Z " fill="#3D6385" transform="translate(162,328)"/>
<path d="M0 0 C0.66 0.33 1.32 0.66 2 1 C0.71034824 2.37562854 -0.62689293 3.70766393 -2 5 C-2.66 5 -3.32 5 -4 5 C-4.268125 5.61875 -4.53625 6.2375 -4.8125 6.875 C-6 9 -6 9 -9 11 C-7.59928507 5.70841026 -4.14512755 3.22521956 0 0 Z " fill="#123C6A" transform="translate(235,298)"/>
<path d="M0 0 C1.31872662 0.39651917 2.62997101 0.81798691 3.9375 1.25 C4.66839844 1.48203125 5.39929688 1.7140625 6.15234375 1.953125 C8 3 8 3 8.75390625 5.109375 C8.83511719 5.73328125 8.91632813 6.3571875 9 7 C8.34 7 7.68 7 7 7 C7 6.34 7 5.68 7 5 C5.35 5 3.7 5 2 5 C2 4.34 2 3.68 2 3 C1.34 3 0.68 3 0 3 C0 2.01 0 1.02 0 0 Z " fill="#032A3B" transform="translate(312,292)"/>
<path d="M0 0 C1 2 1 2 0.22265625 4.3828125 C-0.16019531 5.28773438 -0.54304688 6.19265625 -0.9375 7.125 C-1.31777344 8.03507812 -1.69804687 8.94515625 -2.08984375 9.8828125 C-2.39019531 10.58148438 -2.69054687 11.28015625 -3 12 C-4.04995759 8.32514845 -3.97557588 5.73970756 -3 2 C-2.01 1.34 -1.02 0.68 0 0 Z " fill="#A36352" transform="translate(264,250)"/>
<path d="M0 0 C0 0.66 0 1.32 0 2 C-3.5486135 4.36574234 -4.5764525 4.10865265 -8.6875 3.625 C-10.17830078 3.45871094 -10.17830078 3.45871094 -11.69921875 3.2890625 C-12.45847656 3.19367188 -13.21773438 3.09828125 -14 3 C-14 2.67 -14 2.34 -14 2 C-12.04200486 1.66468585 -10.08359226 1.33180857 -8.125 1 C-6.48917969 0.7215625 -6.48917969 0.7215625 -4.8203125 0.4375 C-2 0 -2 0 0 0 Z " fill="#044E83" transform="translate(346,320)"/>
<path d="M0 0 C4.38259368 1.33912585 6.54093925 3.12225036 9 7 C8.67 7.99 8.34 8.98 8 10 C6.66370254 8.52351062 5.33103329 7.0437367 4 5.5625 C3.2575 4.73878906 2.515 3.91507812 1.75 3.06640625 C0 1 0 1 0 0 Z " fill="#1B71A1" transform="translate(304,278)"/>
<path d="M0 0 C0.99 0.495 0.99 0.495 2 1 C2 1.66 2 2.32 2 3 C2.66 3 3.32 3 4 3 C6.09230769 7.43076923 6.09230769 7.43076923 5.625 10.3125 C5.41875 10.869375 5.2125 11.42625 5 12 C4.54625 11.05125 4.0925 10.1025 3.625 9.125 C2.19761746 5.99686321 2.19761746 5.99686321 0 4 C0 2.68 0 1.36 0 0 Z " fill="#386E8C" transform="translate(256,137)"/>
<path d="M0 0 C3.45925163 1.2491742 6.14693203 2.67527795 9 5 C6.36 5 3.72 5 1 5 C0.67 3.35 0.34 1.7 0 0 Z " fill="#1571A1" transform="translate(320,302)"/>
<path d="M0 0 C1.1171875 3.71875 1.1171875 3.71875 0.0625 6.25 C-0.4634375 7.11625 -0.4634375 7.11625 -1 8 C-1.66 8 -2.32 8 -3 8 C-3.66 9.65 -4.32 11.3 -5 13 C-5.33 12.34 -5.66 11.68 -6 11 C-4.78515625 8.3984375 -4.78515625 8.3984375 -3.0625 5.375 C-2.21365234 3.87066406 -2.21365234 3.87066406 -1.34765625 2.3359375 C-0.90292969 1.56507812 -0.45820313 0.79421875 0 0 Z " fill="#C16126" transform="translate(243,124)"/>
<path d="M0 0 C3.3 0.33 6.6 0.66 10 1 C9.01 2.32 8.02 3.64 7 5 C3.535 3.02 3.535 3.02 0 1 C0 0.67 0 0.34 0 0 Z " fill="#466A8A" transform="translate(187,347)"/>
<path d="M0 0 C1.45792884 -0.05399736 2.91642712 -0.09279177 4.375 -0.125 C5.18710938 -0.14820313 5.99921875 -0.17140625 6.8359375 -0.1953125 C9 0 9 0 11 2 C8.00468461 2.99843846 6.82744268 3.00732761 3.8125 2.5625 C2.554375 2.376875 1.29625 2.19125 0 2 C0 1.34 0 0.68 0 0 Z " fill="#173C66" transform="translate(148,323)"/>
<path d="M0 0 C0 0.66 0 1.32 0 2 C-3.20380017 4.13586678 -4.01939967 4.23132175 -7.6875 4.125 C-8.89986328 4.09792969 -8.89986328 4.09792969 -10.13671875 4.0703125 C-11.05904297 4.03550781 -11.05904297 4.03550781 -12 4 C-4.23529412 0 -4.23529412 0 0 0 Z " fill="#2C395C" transform="translate(204,317)"/>
<path d="M0 0 C0.99 0.66 1.98 1.32 3 2 C1.35 4.64 -0.3 7.28 -2 10 C-3.19156292 5.23374833 -2.3415946 4.12120649 0 0 Z " fill="#E89C37" transform="translate(149,282)"/>
<path d="M0 0 C3.16115776 1.36983503 3.9927092 1.9890638 6 5 C3.83125748 4.49396008 2.00032373 4.00016187 0 3 C0 2.01 0 1.02 0 0 Z M-4 3 C-3.01 3.33 -2.02 3.66 -1 4 C-1.33 4.66 -1.66 5.32 -2 6 C-2.66 5.01 -3.32 4.02 -4 3 Z " fill="#033755" transform="translate(300,276)"/>
<path d="M0 0 C0.66 0.33 1.32 0.66 2 1 C1.3125 2.9375 1.3125 2.9375 0 5 C-2.625 5.75 -2.625 5.75 -5 6 C-5 5.01 -5 4.02 -5 3 C-2.625 1.25 -2.625 1.25 0 0 Z " fill="#DDBC6D" transform="translate(138,182)"/>
<path d="M0 0 C0.33 0.66 0.66 1.32 1 2 C3.52733235 2.65555119 3.52733235 2.65555119 6 3 C5.67 3.99 5.34 4.98 5 6 C2.36 4.68 -0.28 3.36 -3 2 C-2.01 1.34 -1.02 0.68 0 0 Z " fill="#416788" transform="translate(211,358)"/>
<path d="M0 0 C-6.75 4 -6.75 4 -9 4 C-9 3.01 -9 2.02 -9 1 C-5.57367167 -0.61798838 -3.61944899 -1.34053666 0 0 Z " fill="#476680" transform="translate(292,355)"/>
<path d="M0 0 C2.64 0.33 5.28 0.66 8 1 C8.33 2.32 8.66 3.64 9 5 C5.54074837 3.7508258 2.85306797 2.32472205 0 0 Z " fill="#557291" transform="translate(164,334)"/>
<path d="M0 0 C0.6875 1.8125 0.6875 1.8125 1 4 C-0.375 5.5625 -0.375 5.5625 -2 7 C-2.33 7.99 -2.66 8.98 -3 10 C-3.99 10.33 -4.98 10.66 -6 11 C-6 10.34 -6 9.68 -6 9 C-5.34 9 -4.68 9 -4 9 C-3.896875 8.443125 -3.79375 7.88625 -3.6875 7.3125 C-2.86866423 4.55823422 -1.54146219 2.41272343 0 0 Z " fill="#8F625E" transform="translate(259,262)"/>
<path d="M0 0 C2.31 0.33 4.62 0.66 7 1 C7.33 2.32 7.66 3.64 8 5 C4.62496331 3.8141763 2.35277269 2.72426311 0 0 Z " fill="#4A6A86" transform="translate(229,371)"/>
<path d="M0 0 C1.32 0.33 2.64 0.66 4 1 C-1.14285714 5.42857143 -1.14285714 5.42857143 -5 6 C-5 5.34 -5 4.68 -5 4 C-4.360625 3.71125 -3.72125 3.4225 -3.0625 3.125 C-0.84793921 2.17176549 -0.84793921 2.17176549 0 0 Z " fill="#52839A" transform="translate(355,315)"/>
<path d="M0 0 C0.99 0 1.98 0 3 0 C3.33 1.65 3.66 3.3 4 5 C2.68 5 1.36 5 0 5 C-0.5625 3.0625 -0.5625 3.0625 -1 1 C-0.67 0.67 -0.34 0.34 0 0 Z " fill="#022C3D" transform="translate(307,286)"/>
<path d="M0 0 C1.4783226 2.95664519 1.06032783 5.74229737 1 9 C-0.32 8.01 -1.64 7.02 -3 6 C-2.42655063 3.13275314 -2.1385485 2.1385485 0 0 Z " fill="#17719F" transform="translate(251,281)"/>
<path d="M0 0 C2.91517292 1.07401108 4.77810176 1.77810176 7 4 C5.02 4.99 5.02 4.99 3 6 C0 2.25 0 2.25 0 0 Z " fill="#4C91B4" transform="translate(350,182)"/>
<path d="M0 0 C3.37503669 1.1858237 5.64722731 2.27573689 8 5 C5.69 4.67 3.38 4.34 1 4 C0.67 2.68 0.34 1.36 0 0 Z " fill="#4D8CB0" transform="translate(291,148)"/>
<path d="M0 0 C0 1.65 0 3.3 0 5 C-1.9375 4.6875 -1.9375 4.6875 -4 4 C-4.33 3.01 -4.66 2.02 -5 1 C-3 0 -3 0 0 0 Z " fill="#DFA328" transform="translate(237,129)"/>
<path d="M0 0 C0 0.66 0 1.32 0 2 C-4.38461538 5 -4.38461538 5 -7 5 C-6.67 3.68 -6.34 2.36 -6 1 C-3.92446352 0.4465236 -2.15634036 0 0 0 Z " fill="#446885" transform="translate(313,341)"/>
<path d="M0 0 C0.6875 1.625 0.6875 1.625 1 4 C-0.4375 7.25 -0.4375 7.25 -2 10 C-2.6875 8.375 -2.6875 8.375 -3 6 C-1.5625 2.75 -1.5625 2.75 0 0 Z " fill="#4F6980" transform="translate(267,246)"/>
<path d="M0 0 C4.13333333 6.2 4.13333333 6.2 3.625 9.25 C3.41875 9.8275 3.2125 10.405 3 11 C0.60236815 8.60236815 0.65719414 7.66726502 0.375 4.375 C0.30023438 3.55773437 0.22546875 2.74046875 0.1484375 1.8984375 C0.09945313 1.27195313 0.05046875 0.64546875 0 0 Z " fill="#93645E" transform="translate(264,157)"/>
<path d="M0 0 C0.99 0.33 1.98 0.66 3 1 C2.67 1.99 2.34 2.98 2 4 C-0.64 3.34 -3.28 2.68 -6 2 C-6 1.67 -6 1.34 -6 1 C-4.7934375 1.0309375 -4.7934375 1.0309375 -3.5625 1.0625 C-1.06645115 1.29633621 -1.06645115 1.29633621 0 0 Z " fill="#02395B" transform="translate(341,308)"/>
<path d="M0 0 C0.66 0 1.32 0 2 0 C4.4294516 3.6441774 4.16179575 5.71241272 4 10 C1.81024227 6.71536341 1.00193437 3.79303725 0 0 Z " fill="#1871A1" transform="translate(280,232)"/>
<path d="M0 0 C3.465 1.485 3.465 1.485 7 3 C6.67 3.66 6.34 4.32 6 5 C4.68 5 3.36 5 2 5 C1.34 3.35 0.68 1.7 0 0 Z " fill="#4F94B7" transform="translate(329,170)"/>
<path d="M0 0 C-0.66 1.65 -1.32 3.3 -2 5 C-2.99 5 -3.98 5 -5 5 C-4.625 3.0625 -4.625 3.0625 -4 1 C-2 0 -2 0 0 0 Z " fill="#DFB565" transform="translate(199,148)"/>
<path d="M0 0 C2.91517292 1.07401108 4.77810176 1.77810176 7 4 C4.3333581 5.33332095 2.83319697 4.67102033 0 4 C0 2.68 0 1.36 0 0 Z " fill="#4487AA" transform="translate(254,127)"/>
</svg>
